<?xml version="1.0" encoding="utf-8"?>
<!-- Generator: Adobe Illustrator 21.1.0, SVG Export Plug-In . SVG Version: 6.00 Build 0)  -->
<svg version="1.1" id="Layer_1" xmlns="http://www.w3.org/2000/svg" xmlns:xlink="http://www.w3.org/1999/xlink" x="0px" y="0px"
	 viewBox="0 0 103.9 95" style="enable-background:new 0 0 103.9 95;" xml:space="preserve">
<style type="text/css">
	.st0{fill:#FFFFFF;}
</style>
<g>
	<path d="M88.6,71.7c-2.5-0.1-6-0.1-11.3,0.2c-2.5,0.1-3-0.9-3.9-5.2c-0.4-1.9-1.8-0.9-3.8-1.4c-1.8-0.7-2.2-5.1-2.2-5.1
		c0-1-0.6-1-0.9-0.9c-7.2,3.1-14.8-1.4-15-0.6c-1.3,3.6-4.9,3.4-5.4,2.5c0.1,1.6-2.4,3-3.2,2.6c-2.8-1.4-2.8-2.5-4.8-3.2
		c-3.5-1.5-2.8-3.1-6.2-3.3c-2.5-0.1-3.3-0.5-3.9-1c-2.6-2.5-0.4-5.8,1.1-7c-0.6-2.6,3.1-5.8,4-8c-1.2,0-2.9-0.3-5.7-1.2
		c-1.4-0.5-1.1,0.2-3.6,0c-3.4-0.3-4.6-0.6-5.7-1.1c-0.6-0.3-3.9-0.2-5.5-0.7c-5.4-0.7-4.6-5.5-4.4-6c0-0.2,0.1-0.2,1.1-0.2
		c1.4,0.1,3.8-0.6,5.7-0.3c0.8,0.1,2-0.3,3.9,0c2.3-0.4,4.1,0.2,6.8-0.8c0.4-0.1,0.3,0.3,1.2,0.2c0.5-0.1,0.4-0.4,1.8-0.3
		c1.6,0.2,3.7,0,5.7,0c2,0,3.5-0.4,8.3-0.9c2-0.2,3.5-1.1,5-0.4c2.2,1.1,9.9,4.3,18.1,8.3c0.2,0.1,0.9,0.5,1.3-0.6
		c0.9-1.7,1.4-1.2,4.7-1.2c2.3-0.1,0.6-1.9,3.1-1.8c3.9,0,5.4,0.4,11.1,0.2c2.3-0.1,2.9-0.2,3,1.5l0.3,34.7
		C89.5,71.1,89.3,71.7,88.6,71.7z"/>
	<path class="st0" d="M9.4,33.4c-0.1,1.5,2.7,1.1,3.8,0.9c0.7-0.1,1.2-1.2,0.5-1.4l-4.2,0.4C9.5,33.2,9.4,33.3,9.4,33.4z"/>
	<path class="st0" d="M32.2,51c1.6,0.2,1.5,0.9,2.4,0.8c1.2-0.2,0.1-0.6,4.1-0.5c1.2,0,1.8-0.1,2.6,0.4c0.4-0.3,1.3-0.8,1.9-0.2
		c1.4-0.3,0.9-0.5,3.4,0.1c3.3,0.7,3.9-0.6,5.5-1.4c0.4-0.2,0.7-0.3,1.5-0.2c6.1,0.7,3.5,0.7,11.9,0.1c2.9-0.6,4-2.2,3.9-6.1
		C68.9,39.4,68,40,65.5,39c-10-4.3-16.8-8.1-19.4-7.9c-7.4,0.2-6,1.5-15.8,1.3c-3.1-0.4-3,1.2-4.1,1.1c-0.9-0.5-0.2-0.9-3.1-0.6
		c-6,0.6-7.3-0.4-7.8,0.6c-0.7,1.3-0.7,2.1-4.6,1.8c-0.3,0-0.4,0-0.6-0.1c-0.5-0.1-0.5,0.2,0,0.5c0.4,0.3,3.6,1.8,7.3,1.2
		c2.1-0.4,1,0.5,4.5,0.4c1.5-0.1,2.5-0.1,3-0.2c1.5,0.6,4.5,0.6,5.5,0.3c1.2-0.3,1.7-0.7,2.8-0.1c1.1,0.6,3.4,1.3,6.9,0.9
		c4-0.5,3.8-1.3,4.2-1c0.9,0.7-1,2,1,3.6c1,0.8,2.1-2.4,3.1-2.3c0.6,0.1,0.7,0.6,0.4,1.3c-0.1,0.3-1.3,2.1-0.3,2.8
		c1.7,1.2,4.6-2.5,6.8-1c0.5,0.4,0,1-0.7,0.9c-1.1-0.1-2.9,1-3.7,1.6c-1,0.9-3.9,2.4-4.9,2.8c-3.7,1.6-5,0.4-5.7,1.4
		c-0.6,0.7-1.8-0.3-3.1-0.6c-2.5-0.4-8.3,1.7-7.7,3c0.2,0.4,0.6,0.4,1.1,0.3C31.3,50.9,31.5,50.9,32.2,51z"/>
	<path class="st0" d="M33.7,54.1c-0.6-1.3-0.7-1.4-1.9-1.7c-1.1-0.2-4.1,0.7-3.7,2c0.3,0.4,1.6,0.4,2.4,0.6
		C31.4,55.3,34.1,55.6,33.7,54.1z"/>
	<path class="st0" d="M71.7,64c-1.2,0-1.4-0.8-1.6-1.6c-0.3-1.2,0.5-6,0.6-12.1c0-6.1-0.2-7.8-0.5-11.1c-0.1-0.8-0.7-1.8,0.4-1.9
		c3.6-0.2,4.7-0.5,5.3,2.3c0.7,3.3,0.9,16.2,0.1,23C75.7,63.2,76.4,64.3,71.7,64z"/>
</g>
</svg>
