<svg xmlns="http://www.w3.org/2000/svg" xmlns:xlink="http://www.w3.org/1999/xlink" viewBox="0 0 331.48 82">
    <defs>
        <style>
            .cls-1,.cls-2,.cls-3
                {
                    fill:none;
                }
            
            .cls-1,.cls-2,.cls-3,.cls-6,.cls-7
                {
                    stroke:#231f20;
                }
            
            .cls-1
                {
                    stroke-miterlimit:10;
                    stroke-width:0.6px;
                }
            
            .cls-2,.cls-6,.cls-7
                {
                    stroke-linecap:round;
                    stroke-linejoin:round;
                }
            
            .cls-2,.cls-3
                {
                    stroke-width:0.5px;
                }
            .cls-4
                {
                    clip-path:url(#clip-path);
                }
            
            .cls-5
                {
                    fill:#231f20;
                }
                
            .cls-6,.cls-7
                {
                    fill:#fff;
                }
            
            .cls-6
                {
                    stroke-width:0.43px;
                }
            .cls-7
                {
                    stroke-width:0.41px;
                }
                </style>
                <clipPath id="clip-path">
                    <rect class="cls-1" x="120.63" y="2.79" width="208.57" height="76.92"/></clipPath></defs><title>GE_logo</title><g id="Layer_1" data-name="Layer 1"><path class="cls-2" d="M116.09,19.59V37h-5.51l-.45-5.56L108.6,35c-1.93,1.89-4.56,2.78-8.33,2.78-9.53,0-15.53-6.75-15.53-17.61,0-11.21,7.29-18,16.87-18,9.28,0,14.09,5.06,14.78,11.81l0,.5h-6.85l-.1-.5c-.84-4.22-3.42-6.7-8-6.7-5.56,0-9.53,4.71-9.53,12.5,0,8.53,4,12.9,9.33,12.9,4.42,0,7.54-2.88,8.24-7.69H102.3V19.59Z"/><path class="cls-3" d="M113.56,79.52H88.86V45.29h24.21v5.36H95.7v9h16.12v5.41H95.7v9h17.86Z"/><g class="cls-4"><path class="cls-5" d="M145.42,37H120.71V2.82h24.21V8.18H127.56v9h16.12v5.41H127.56v9h17.86Z"/><path class="cls-5" d="M169,37l-14.09-26c.2,3.72.25,7.64.25,10.52V37h-6.85V2.82h9.08l14.39,26.49c-.2-3.67-.25-7.84-.25-10.77V2.82h6.8l0,34.23Z"/><path class="cls-5" d="M207.73,37H183V2.82h24.21V8.18H189.87v9H206v5.41H189.87v9h17.86Z"/><path class="cls-5" d="M238.88,37h-7.49a30.07,30.07,0,0,1-1.69-7.64c-.45-3.67-1.84-5.9-4.61-6.1-.94,0-1.79,0-2.68,0h-4V37H211.6V2.82h12.5a38.5,38.5,0,0,1,5,.25c5,.6,9,3.18,9,9.08,0,4.42-2.63,7.19-6.7,8.34,3.37,1.29,4.66,4.12,5.06,7.94C236.85,32.58,237.49,35.11,238.88,37Zm-15.73-18.9c1.19,0,2,0,2.78,0,2.73-.25,4.91-1.59,4.91-4.91S229,8.67,226.33,8.32a22.42,22.42,0,0,0-2.88-.15h-5v10Z"/><path class="cls-5" d="M251.08,26.73,247.66,37h-7.29L252.72,2.82h8.58L273.41,37H266l-3.37-10.32Zm1.74-5.41h8l-4-12.65Z"/><path class="cls-5" d="M300.3,37H275.59V2.82h6.85V31.34H300.3Z"/><path class="cls-5" d="M150.13,56.88l0,.5h-6.85l-.1-.5c-.84-4.22-3.42-6.7-8-6.7-5.51,0-9.23,4.71-9.23,12.5,0,8.53,3.92,12.9,9.13,12.9,4.47,0,7-2.68,7.94-6.95l.1-.5H150l0,.5c-.74,7.29-6.3,12.06-15.08,12.06-9.53,0-16.07-6.7-16.07-17.61,0-11.21,7.09-18,16.57-18C144.62,45.07,149.44,50.13,150.13,56.88Z"/><path class="cls-5" d="M186.24,62.88c0,10.72-6.4,17.81-16.92,17.81s-16.92-7.09-16.92-17.81,6.35-17.81,16.92-17.81S186.24,52.11,186.24,62.88Zm-7.19,0c0-8-3.67-12.7-9.72-12.7s-9.77,4.66-9.77,12.7,3.67,12.7,9.77,12.7S179.05,70.87,179.05,62.88Z"/><path class="cls-5" d="M210,80,195.87,54c.2,3.72.25,7.64.25,10.52V80h-6.85V45.76h9.08l14.39,26.49c-.2-3.67-.25-7.84-.25-10.77V45.76h6.8l0,34.23Z"/><path class="cls-5" d="M256.94,62.88c0,10.72-6.4,17.81-16.92,17.81S223.1,73.6,223.1,62.88,229.45,45.07,240,45.07,256.94,52.11,256.94,62.88Zm-7.19,0c0-8-3.67-12.7-9.72-12.7s-9.77,4.66-9.77,12.7,3.67,12.7,9.77,12.7S249.75,70.87,249.75,62.88Z"/><path class="cls-5" d="M296.88,80H290V64.17c0-3.57,0-8.14.1-11.71C289.29,56,288,60.6,287,64.12L282.14,80H274.7l-4.91-15.92c-1-3.47-2.28-8-3.08-11.56.1,3.57.1,8.09.1,11.66V80H260V45.76h10.82l7.74,27.93,7.74-27.93h10.62Z"/><path class="cls-5" d="M316.77,80H310V66.75l-12.1-21h7.74l8,14.93,7.74-14.93h7.54l-12.11,21Z"/></g><rect class="cls-1" x="120.63" y="2.79" width="208.57" height="76.92"/><polygon class="cls-5" points="131.2 79.71 120.63 68.58 120.63 79.43 131.2 79.71"/></g><g id="Layer_4" data-name="Layer 4"><circle class="cls-6" cx="42.89" cy="40.93" r="30.6"/><rect class="cls-7" x="21.35" y="19.61" width="43.17" height="43.17" transform="translate(41.7 -18.29) rotate(45)"/><line class="cls-6" x1="42.89" y1="10.33" x2="50.81" y2="2.33"/><line class="cls-6" x1="22.13" y1="18.36" x2="38.19" y2="2.3"/><line class="cls-6" x1="73.48" y1="41.08" x2="81.53" y2="49.14"/><line class="cls-6" x1="65.18" y1="19.95" x2="81.54" y2="36.3"/><line class="cls-6" x1="43.15" y1="71.5" x2="35.41" y2="79.23"/><line class="cls-6" x1="64.38" y1="62.82" x2="48.08" y2="79.11"/><line class="cls-6" x1="20.9" y1="62.28" x2="4.57" y2="45.94"/><line class="cls-6" x1="46.94" y1="10.4" x2="55.1" y2="2.24"/><line class="cls-6" x1="39.2" y1="10.55" x2="47.44" y2="2.31"/><line class="cls-6" x1="73.28" y1="44.53" x2="81.5" y2="52.76"/><line class="cls-6" x1="73.36" y1="37.04" x2="81.37" y2="45.05"/><line class="cls-6" x1="39.16" y1="71.61" x2="31.62" y2="79.15"/><line class="cls-6" x1="46.95" y1="71.27" x2="39.12" y2="79.11"/><line class="cls-6" x1="12.7" y1="41.5" x2="4.57" y2="33.37"/><line class="cls-6" x1="12.41" y1="37.14" x2="4.86" y2="29.6"/><line class="cls-6" x1="12.58" y1="45.22" x2="4.46" y2="37.09"/><circle class="cls-5" cx="12.4" cy="40.68" r="7.3" transform="matrix(0.8, -0.59, 0.59, 0.8, -21.76, 15.34)"/><circle class="cls-5" cx="64.1" cy="62.73" r="3.9"/><circle class="cls-5" cx="64.1" cy="17.79" r="3.9"/><circle class="cls-5" cx="43.18" cy="71.61" r="3.9"/><circle class="cls-5" cx="43.18" cy="10.08" r="3.9"/><circle class="cls-5" cx="73.61" cy="40.93" r="3.9" transform="translate(-2.84 5.59) rotate(-4.27)"/><circle class="cls-5" cx="22.02" cy="62.73" r="3.9"/><circle class="cls-5" cx="22.55" cy="18.43" r="3.9"/></g></svg>