<?xml version="1.0" encoding="utf-8"?>
<!-- Generator: Adobe Illustrator 21.0.2, SVG Export Plug-In . SVG Version: 6.00 Build 0)  -->
<svg version="1.1" id="Layer_1" xmlns="http://www.w3.org/2000/svg" xmlns:xlink="http://www.w3.org/1999/xlink" x="0px" y="0px"
	 viewBox="0 0 35 39.7" style="enable-background:new 0 0 35 39.7;" xml:space="preserve">
<style type="text/css">
	.st0{fill:#FFFFFF;stroke:#231F20;stroke-width:0.1818;stroke-linecap:round;stroke-linejoin:round;}
	.st1{fill:#FFFFFF;stroke:#231F20;stroke-width:0.1721;stroke-linecap:round;stroke-linejoin:round;}
	.st2{fill:#231F20;}
</style>
<circle class="st0" cx="17.5" cy="19.9" r="13"/>
<rect x="8.3" y="10.9" transform="matrix(0.7071 0.7071 -0.7071 0.7071 19.3005 -6.4789)" class="st1" width="18.3" height="18.3"/>
<line class="st0" x1="17.5" y1="6.9" x2="20.8" y2="3.5"/>
<line class="st0" x1="8.6" y1="10.4" x2="15.5" y2="3.5"/>
<line class="st0" x1="30.5" y1="20" x2="33.9" y2="23.4"/>
<line class="st0" x1="26.9" y1="11" x2="33.9" y2="18"/>
<line class="st0" x1="17.6" y1="32.9" x2="14.3" y2="36.2"/>
<line class="st0" x1="26.6" y1="29.2" x2="19.7" y2="36.2"/>
<line class="st0" x1="8.1" y1="29" x2="1.2" y2="22.1"/>
<line class="st0" x1="19.2" y1="7" x2="22.6" y2="3.5"/>
<line class="st0" x1="15.9" y1="7" x2="19.4" y2="3.5"/>
<line class="st0" x1="30.4" y1="21.5" x2="33.9" y2="25"/>
<line class="st0" x1="30.4" y1="18.3" x2="33.8" y2="21.7"/>
<line class="st0" x1="15.9" y1="33" x2="12.7" y2="36.2"/>
<line class="st0" x1="19.2" y1="32.8" x2="15.9" y2="36.2"/>
<line class="st0" x1="4.6" y1="20.2" x2="1.2" y2="16.7"/>
<line class="st0" x1="4.5" y1="18.3" x2="1.3" y2="15.1"/>
<line class="st0" x1="4.6" y1="21.8" x2="1.1" y2="18.3"/>
<ellipse transform="matrix(0.8041 -0.5945 0.5945 0.8041 -10.9151 6.5611)" class="st2" cx="4.5" cy="19.8" rx="3.1" ry="3.1"/>
<circle class="st2" cx="26.5" cy="29.2" r="1.7"/>
<circle class="st2" cx="26.5" cy="10.1" r="1.7"/>
<circle class="st2" cx="17.6" cy="33" r="1.7"/>
<circle class="st2" cx="17.6" cy="6.8" r="1.7"/>
<ellipse transform="matrix(0.9972 -7.441115e-02 7.441115e-02 0.9972 -1.3999 2.3251)" class="st2" cx="30.5" cy="19.9" rx="1.7" ry="1.7"/>
<circle class="st2" cx="8.6" cy="29.2" r="1.7"/>
<circle class="st2" cx="8.8" cy="10.4" r="1.7"/>
</svg>
